# xmcd
#
# Track frame offsets: 
#        150
#        15031
#        28715
#        43401
#        56823
#        70190
#        82831
#        95343
#        108047
#        119491
#        132334
#        146308
#        159057
#        171172
#        185579
#
# Disc length: 2665 seconds
#
# Revision: 0
# Processed by: cddbd v1.5.2PL0 Copyright (c) Steve Scherf et al.
# Submitted via: ExactAudioCopy v1.1
#
DISCID=ba0a670f
DTITLE=Various Artist - Various ‎– Simply Blues
DYEAR=2012
DGENRE=Blues
TTITLE0=Louis Armstrong - Dallas Blues
TTITLE1=Louis Armstrong - St. Louis Blues
TTITLE2=Lonnie Johnson - Racketeers Blues
TTITLE3=Blind Blake - Diddie Wa Diddie
TTITLE4=Mississippi John Hurt - Stack O'Lee
TTITLE5=Mississippi John Hurt - Candy Man Blues
TTITLE6=Connee Boswell - Mama Don't Allow
TTITLE7=Blind Boy Fuller - Truckin' My Blues Away
TTITLE8=Blind Willie McTell - Stateboro Blues
TTITLE9=Skip James - I'm So Glad
TTITLE10=Furry Lewis - Kassie Jones Pt. 1
TTITLE11=Furry Lewis - Falling Down Blues
TTITLE12=Charley Patton - Revenue Man Blues
TTITLE13=Ma Rainey - Ma Rainey's Black Bottom
TTITLE14=Ma Rainey - C.C. Ryder
EXTD=
EXTT0=
EXTT1=
EXTT2=
EXTT3=
EXTT4=
EXTT5=
EXTT6=
EXTT7=
EXTT8=
EXTT9=
EXTT10=
EXTT11=
EXTT12=
EXTT13=
EXTT14=
PLAYORDER=
